<?xml version="1.0" encoding="utf-8"?>
<!-- Generator: Adobe Illustrator 25.4.1, SVG Export Plug-In . SVG Version: 6.00 Build 0)  -->
<svg version="1.1" xmlns="http://www.w3.org/2000/svg" xmlns:xlink="http://www.w3.org/1999/xlink" x="0px" y="0px"
	 viewBox="0 0 82.2 82.39" style="enable-background:new 0 0 82.2 82.39;" xml:space="preserve">
<style type="text/css">
	.st1{display:inline;}
</style>
<g id="Layer_2">
	<g>
		<path d="M41.2,0.12c22.75,0.04,40.95,18.22,41,40.96C82.24,64.01,63.89,82.36,41,82.27C18.04,82.18,0.05,64.03,0,40.9
			C-0.05,18.38,18.43,0.08,41.2,0.12z M40.73,74.75c18.65,0.21,33.81-14.71,33.95-33.39C74.82,22.93,59.93,7.79,41.49,7.6
			c-18.63-0.19-33.77,14.7-34,33.42C7.26,59.28,22.3,74.54,40.73,74.75z"/>
		<path d="M56.12,68.01c-5.7-5.55-11.2-11.35-17.18-16.57c-4.41-3.85-6.86-8.28-7.96-14.01c-1.45-7.56-3.66-14.98-4.96-22.91
			c2.59,2.39,5.22,4.74,7.76,7.18c2.84,2.73,5.36,5.86,8.45,8.26c5.34,4.15,8.01,9.47,9.27,16.01c1.4,7.28,3.51,14.41,5.31,21.61
			C56.58,67.72,56.35,67.87,56.12,68.01z"/>
	</g>
</g>
</svg>
