<?xml version="1.0" encoding="utf-8"?>
<!-- Generator: Adobe Illustrator 25.4.1, SVG Export Plug-In . SVG Version: 6.00 Build 0)  -->
<svg version="1.1" id="Layer_1" xmlns="http://www.w3.org/2000/svg" xmlns:xlink="http://www.w3.org/1999/xlink" x="0px" y="0px"
	 viewBox="0 0 82.2 82.39" style="enable-background:new 0 0 82.2 82.39;" xml:space="preserve">
<path d="M82.2,0c-9.31,22.21-18.23,43.47-27.14,64.73c-1.86,4.45-3.57,8.97-5.68,13.3c-0.82,1.68-2.54,2.92-3.85,4.35
	c-1.4-1.53-3.35-2.83-4.11-4.64c-3.03-7.19-5.86-14.47-8.42-21.85c-1.2-3.46-3.1-5.45-6.59-6.68c-7.99-2.81-15.87-5.98-23.7-9.21
	C1.49,39.51,0,37.88,0,36.77c0-1.16,1.4-2.88,2.6-3.39C28.75,22.32,54.95,11.39,82.2,0z"/>
</svg>
