<?xml version="1.0" encoding="utf-8"?>
<!-- Generator: Adobe Illustrator 25.4.1, SVG Export Plug-In . SVG Version: 6.00 Build 0)  -->
<svg version="1.1" xmlns="http://www.w3.org/2000/svg" xmlns:xlink="http://www.w3.org/1999/xlink" x="0px" y="0px"
	 viewBox="0 0 1647.67 397.31" style="enable-background:new 0 0 1647.67 397.31;" xml:space="preserve">
<style type="text/css">
	.st1{fill:#ff385c}
</style>
<g id="Layer_2" class='st1'>
	<g>
		<path d="M2.23,13.28c2.65,0,4.18,0,5.71,0c74.34-0.01,148.69-0.04,223.03-0.02c67.96,0.02,124.07,46.33,137.05,113.05
			c12.95,66.53-27.85,135.48-92.38,155.87c-1.64,0.52-4.46,0.11-5.59-1.01c-27.51-27.26-54.86-54.68-82.23-82.08
			c-0.31-0.31-0.52-0.74-1.07-1.54c1.41-0.17,2.53-0.42,3.65-0.42c13.37,0.04,26.75-0.05,40.12,0.22
			c27.01,0.55,48.67-20.81,47.87-47.43c-0.8-26.78-24.04-47.14-50.96-44.69c-2.01,0.18-4.03,0.28-6.05,0.28
			c-40.91,0.01-81.81,0.05-122.71-0.15c-2.58-0.01-5.79-1.36-7.63-3.17C62.42,73.84,33.98,45.32,5.5,16.82
			C4.64,15.97,3.85,15.04,2.23,13.28z"/>
		<path d="M0.45,197.13c9.1,0,17.02,0,24.94,0c33.59-0.01,67.18-0.06,100.76,0.09c2.34,0.01,5.32,0.93,6.92,2.52
			c60.6,60.36,121.06,120.85,181.55,181.33c0.66,0.66,1.25,1.38,2.36,2.61c-1.77,0.15-3.05,0.35-4.32,0.35
			c-40.58,0.01-81.17,0.05-121.75-0.1c-2.17-0.01-4.88-1.11-6.41-2.64C124.35,321.36,64.32,261.31,4.28,201.27
			C3.22,200.21,2.23,199.07,0.45,197.13z"/>
	</g>
	
	<g>
		<path d="M545.16,141.64l-4.78,39.54c-3.19-1.06-8.29-1.59-15.31-1.59c-8.5,0-16.26,2.39-23.28,7.17
			c-7.01,4.78-12.12,9.99-15.3,15.62v99.64h-42.41V143.71h40.81v15.94c4.78-5.95,11.24-10.65,19.37-14.11
			c8.13-3.45,16.98-5.18,26.54-5.18C534.21,140.37,539,140.79,545.16,141.64z"/>
		<path d="M724.68,143.71v158.31h-40.81v-12.75c-12.44,10.63-27.16,15.94-44.16,15.94c-11.59,0-22.64-2.39-33.16-7.17
			c-10.52-4.78-19.35-11.26-26.46-19.45c-13.5-15.62-20.25-34.17-20.25-55.64c0-23.28,7.55-42.86,22.64-58.75
			c15.09-15.89,33.43-23.83,55-23.83c17.64,0,33.11,5.37,46.39,16.1v-12.75H724.68z M682.27,246.55v-47.35
			c-4.46-6.06-10.12-10.84-16.98-14.35c-6.86-3.51-14.27-5.26-22.24-5.26c-12.01,0-21.82,4.28-29.41,12.83
			c-7.6,8.56-11.4,18.73-11.4,30.53c0,12.44,3.96,22.75,11.88,30.93c7.92,8.19,17.88,12.28,29.89,12.28
			c7.86,0,15.17-1.78,21.92-5.34C672.67,257.25,678.12,252.5,682.27,246.55z"/>
		<path d="M874.7,141.64l-4.78,39.54c-3.19-1.06-8.29-1.59-15.31-1.59c-8.5,0-16.26,2.39-23.28,7.17
			c-7.01,4.78-12.12,9.99-15.3,15.62v99.64h-42.41V143.71h40.81v15.94c4.78-5.95,11.24-10.65,19.37-14.11
			c8.13-3.45,16.98-5.18,26.54-5.18C863.75,140.37,868.53,140.79,874.7,141.64z"/>
		<path d="M1013.08,252.76l24.07,24.07c-7.55,9.04-17.11,16.02-28.7,20.96c-11.59,4.94-23.65,7.41-36.19,7.41
			c-24.02,0-43.84-7.6-59.47-22.8c-15.62-15.2-23.44-35.02-23.44-59.47c0-10.95,1.83-21.42,5.5-31.41
			c3.67-9.99,8.77-18.79,15.3-26.39c6.54-7.6,14.67-13.63,24.39-18.09c9.72-4.46,20.33-6.7,31.81-6.7c14.24,0,27.1,3.69,38.58,11.08
			c11.48,7.39,20.38,17.25,26.71,29.57c6.32,12.33,9.49,25.78,9.49,40.33c0,4.46-0.32,8.5-0.96,12.12H930.5
			c1.06,11.05,5.63,20.06,13.71,27.02c8.08,6.96,17.75,10.44,29.02,10.44c8.18,0,15.76-1.81,22.72-5.42
			C1002.9,261.9,1008.62,257.65,1013.08,252.76z M932.41,202.38h65.37c-0.64-7.33-3.93-13.79-9.88-19.37
			c-5.95-5.58-13.13-8.37-21.52-8.37c-8.61,0-16.18,2.76-22.72,8.29C937.11,188.46,933.37,194.94,932.41,202.38z"/>
		<path d="M1077.01,380.46V143.71h40.81v12.75c13.29-10.73,28.7-16.1,46.23-16.1c14.13,0,27.16,3.62,39.06,10.84
			c11.9,7.23,21.34,17.17,28.3,29.81c6.96,12.65,10.44,26.62,10.44,41.93c0,21.79-6.64,40.33-19.93,55.64
			c-7.12,8.19-16.02,14.67-26.7,19.45c-10.68,4.78-21.82,7.17-33.4,7.17c-15.73,0-29.87-4.78-42.41-14.35v89.6H1077.01z
			 M1119.42,199.19v47.35c4.14,6.06,9.57,10.84,16.26,14.35c6.7,3.51,13.97,5.26,21.84,5.26c12.01,0,22-4.09,29.97-12.28
			c7.97-8.18,11.96-18.49,11.96-30.93c0-11.8-3.8-21.97-11.4-30.53c-7.6-8.55-17.41-12.83-29.42-12.83
			c-7.97,0-15.38,1.75-22.24,5.26C1129.54,188.35,1123.88,193.14,1119.42,199.19z"/>
		<path d="M1320.14,302.03h-42.41V143.71h40.81v12.75c13.39-10.73,28.27-16.1,44.64-16.1c10.73,0,20.91,2.26,30.53,6.78
			c9.62,4.52,17.72,10.76,24.31,18.73c5.52,6.48,9.65,14.08,12.36,22.8c2.71,8.72,4.07,19.61,4.07,32.68v80.67h-42.57v-83.86
			c0-13.6-3.14-23.54-9.41-29.81c-5.85-5.84-13.77-8.77-23.75-8.77c-8.19,0-15.76,2.05-22.72,6.14
			c-6.96,4.09-12.25,8.58-15.86,13.47V302.03z"/>
		<path d="M1586.06,266.15l6.54,35.87c-6.17,2.12-14.99,3.19-26.46,3.19c-25.08,0-43.36-7.6-54.84-22.8
			c-7.87-10.52-11.8-26.31-11.8-47.35v-55.48h-44v-35.87h44V99.55h42.57v44.16h52.13v35.87h-52.13v60.42c0,9.25,1.7,15.89,5.1,19.93
			c4.57,5.21,11.8,7.81,21.68,7.81C1575.54,267.75,1581.28,267.22,1586.06,266.15z"/>
	</g>
</g>
</svg>
