<?xml version="1.0" encoding="utf-8"?>
<!-- Generator: Adobe Illustrator 25.4.1, SVG Export Plug-In . SVG Version: 6.00 Build 0)  -->
<svg version="1.1" id="Layer_2" xmlns="http://www.w3.org/2000/svg" xmlns:xlink="http://www.w3.org/1999/xlink" x="0px" y="0px"
	 viewBox="0 0 1301.58 397.31" style="enable-background:new 0 0 1301.58 397.31;" xml:space="preserve">
<style type="text/css">
	.st0{display:none;}
	.st1{font-family:'NunitoSans-Bold';}
	.st2{font-size:221.735px;}
</style>
<g>
	<path d="M2.35,0.03c2.84,0,4.48,0,6.12,0c79.66-0.01,159.32-0.04,238.98-0.02c72.82,0.02,132.94,49.64,146.85,121.13
		c13.87,71.29-29.84,145.16-98.98,167.01c-1.76,0.55-4.78,0.12-5.99-1.08c-29.47-29.21-58.78-58.59-88.11-87.95
		c-0.34-0.34-0.55-0.79-1.14-1.65c1.51-0.18,2.71-0.45,3.91-0.45c14.33,0.04,28.66-0.06,42.99,0.24
		c28.94,0.59,52.15-22.3,51.3-50.83c-0.86-28.69-25.75-50.51-54.61-47.88c-2.15,0.2-4.32,0.3-6.48,0.3
		c-43.83,0.01-87.66,0.06-131.49-0.16c-2.76-0.01-6.21-1.45-8.17-3.4C66.85,64.92,36.37,34.35,5.86,3.83
		C4.94,2.91,4.09,1.92,2.35,0.03z"/>
	<path d="M0.45,197.03c9.76,0,18.24,0,26.73,0c35.99-0.01,71.98-0.07,107.97,0.1c2.51,0.01,5.7,1,7.41,2.7
		c64.93,64.68,129.72,129.49,194.52,194.29c0.7,0.7,1.34,1.48,2.53,2.8c-1.9,0.16-3.26,0.37-4.63,0.37
		c-43.49,0.02-86.97,0.06-130.46-0.11c-2.32-0.01-5.23-1.19-6.87-2.83C133.21,330.13,68.89,265.79,4.56,201.46
		C3.42,200.32,2.36,199.09,0.45,197.03z"/>
</g>
<text transform="matrix(1 0 0 1 494.1147 279.977)" class="st0 st1 st2">rarepnt</text>
<g>
	<path d="M508.53,279.98V171.55h27.05v19.07c5.32-12.86,16.7-19.96,34.15-21.29l8.43-0.67l1.77,23.5l-15.96,1.55
		c-18.18,1.77-27.27,11.09-27.27,27.94v58.32H508.53z"/>
	<path d="M630.04,282.19c-7.84,0-14.82-1.52-20.95-4.55c-6.14-3.03-10.94-7.13-14.41-12.31c-3.47-5.17-5.21-11.01-5.21-17.52
		c0-7.98,2.07-14.3,6.21-18.96c4.14-4.66,10.87-8.02,20.18-10.09c9.31-2.07,21.8-3.1,37.47-3.1h7.76v-4.66
		c0-7.39-1.63-12.71-4.88-15.96c-3.25-3.25-8.72-4.88-16.41-4.88c-6.06,0-12.27,0.92-18.62,2.77c-6.36,1.85-12.79,4.69-19.29,8.54
		l-7.98-18.85c3.84-2.66,8.39-4.99,13.64-6.98c5.25-2,10.79-3.55,16.63-4.66c5.84-1.11,11.34-1.66,16.52-1.66
		c15.82,0,27.57,3.66,35.26,10.98c7.68,7.32,11.53,18.66,11.53,34.04v65.63h-25.94v-17.29c-2.52,6.06-6.51,10.83-11.97,14.3
		C644.08,280.46,637.58,282.19,630.04,282.19z M635.8,263.13c7.24,0,13.27-2.51,18.07-7.54c4.8-5.02,7.21-11.38,7.21-19.07v-4.88
		h-7.54c-13.9,0-23.54,1.07-28.94,3.21c-5.4,2.14-8.09,6.03-8.09,11.64c0,4.88,1.7,8.87,5.1,11.97
		C625.01,261.57,629.74,263.13,635.8,263.13z"/>
	<path d="M715.63,279.98V171.55h27.05v19.07c5.32-12.86,16.7-19.96,34.15-21.29l8.43-0.67l1.77,23.5l-15.96,1.55
		c-18.18,1.77-27.27,11.09-27.27,27.94v58.32H715.63z"/>
	<path d="M854.21,282.19c-12.27,0-22.84-2.29-31.71-6.87c-8.87-4.58-15.71-11.09-20.51-19.51c-4.8-8.43-7.21-18.4-7.21-29.93
		c0-11.23,2.33-21.06,6.98-29.49c4.66-8.43,11.09-15.04,19.29-19.85c8.2-4.8,17.55-7.21,28.05-7.21c15.37,0,27.53,4.88,36.48,14.63
		c8.94,9.76,13.42,23.06,13.42,39.91v8.2H821.4c2.07,19.37,13.16,29.05,33.26,29.05c6.06,0,12.12-0.92,18.18-2.77
		c6.06-1.85,11.6-4.77,16.63-8.76l7.76,18.63c-5.18,4.29-11.68,7.69-19.51,10.2C869.88,280.94,862.05,282.19,854.21,282.19z
		 M850.22,188.18c-8.13,0-14.71,2.51-19.73,7.54c-5.03,5.03-8.06,11.83-9.09,20.4h54.55c-0.59-9.02-3.07-15.93-7.43-20.73
		C864.15,190.58,858.06,188.18,850.22,188.18z"/>
	<path d="M920.96,319.89V171.55h27.05v17.3c3.1-5.91,7.79-10.64,14.08-14.19c6.28-3.55,13.42-5.32,21.4-5.32
		c9.46,0,17.77,2.29,24.95,6.87c7.17,4.58,12.75,11.05,16.74,19.4c3.99,8.35,5.99,18.37,5.99,30.04c0,11.53-2,21.55-5.99,30.04
		c-3.99,8.5-9.53,15.04-16.63,19.62c-7.1,4.58-15.45,6.87-25.06,6.87c-7.69,0-14.6-1.66-20.73-4.99
		c-6.14-3.33-10.83-7.8-14.08-13.42v56.1H920.96z M975.72,261.13c8.28,0,14.93-2.99,19.96-8.98c5.02-5.99,7.54-14.82,7.54-26.5
		c0-11.82-2.52-20.66-7.54-26.5c-5.03-5.84-11.68-8.76-19.96-8.76c-8.28,0-14.93,2.92-19.96,8.76c-5.03,5.84-7.54,14.67-7.54,26.5
		c0,11.68,2.51,20.51,7.54,26.5C960.79,258.14,967.44,261.13,975.72,261.13z"/>
	<path d="M1053.99,279.98V171.55h27.05v16.85c3.69-6.21,8.68-10.94,14.97-14.19c6.28-3.25,13.34-4.88,21.18-4.88
		c25.57,0,38.36,14.86,38.36,44.57v66.08h-27.72v-64.75c0-8.43-1.59-14.56-4.77-18.4c-3.18-3.84-8.09-5.77-14.75-5.77
		c-8.13,0-14.6,2.55-19.4,7.65c-4.81,5.1-7.21,11.86-7.21,20.29v60.98H1053.99z"/>
	<path d="M1233.38,282.19c-28.68,0-43.02-14.19-43.02-42.57v-47.23h-20.84v-20.84h20.84v-32.37h27.72v32.37h32.82v20.84h-32.82
		v45.68c0,7.1,1.55,12.42,4.66,15.96c3.1,3.55,8.13,5.32,15.08,5.32c2.07,0,4.21-0.26,6.43-0.78c2.22-0.52,4.51-1.07,6.87-1.66
		l4.21,20.4c-2.66,1.48-6.03,2.66-10.09,3.55C1241.17,281.75,1237.22,282.19,1233.38,282.19z"/>
</g>
</svg>
