<?xml version="1.0" encoding="utf-8"?>
<!-- Generator: Adobe Illustrator 25.4.1, SVG Export Plug-In . SVG Version: 6.00 Build 0)  -->
<svg version="1.1" xmlns="http://www.w3.org/2000/svg" xmlns:xlink="http://www.w3.org/1999/xlink" x="0px" y="0px"
	 viewBox="0 0 1647.67 397.31" style="enable-background:new 0 0 1647.67 397.31;" xml:space="preserve">
<style type="text/css">
	.st0{display:none;}
	.st1{display:inline;}
	.st2{fill:none;stroke:#000000;stroke-miterlimit:10;}
	.st3{display:inline;fill:none;stroke:#000000;stroke-miterlimit:10;}
	.st4{display:inline;fill:#606060;}
	.st5{display:inline;fill:#606060;stroke:#000000;stroke-width:30;stroke-miterlimit:10;}
	.st6{display:inline;fill:#606060;stroke:#000000;stroke-miterlimit:10;}
	.st7{font-family:'Brown-Bold';}
	.st8{font-size:326.5081px;}
	.st9{display:none;opacity:0.5;}
</style>
<g id="Layer_1" class="st0">
	<path class="st1" d="M-464.08-1796.81c-1.36-3.83-2.96-7.54-4.48-10.97c-2.33-5.29-4.78-10.58-7.15-15.7l-0.18-0.4
		c-21.11-45.72-43.77-92.05-67.34-137.73l-1-1.93c-2.41-4.67-4.89-9.49-7.45-14.23c-3.02-6-6.69-11.65-10.94-16.85
		c-4.79-5.71-10.77-10.3-17.53-13.45c-6.76-3.15-14.12-4.78-21.58-4.78c-7.46,0-14.83,1.63-21.59,4.78
		c-6.75,3.16-12.73,7.75-17.52,13.46c-4.24,5.2-7.91,10.85-10.94,16.85c-2.57,4.78-5.08,9.65-7.51,14.35l-0.93,1.8
		c-23.57,45.68-46.23,92.02-67.34,137.73l-0.3,0.66c-2.33,5.03-4.73,10.24-7.03,15.44c-1.52,3.43-3.11,7.13-4.48,10.97
		c-3.91,10.47-5.16,21.74-3.63,32.81c1.62,11.18,6.15,21.75,13.12,30.65c6.97,8.9,16.16,15.83,26.64,20.1
		c7.92,3.2,16.38,4.84,24.92,4.82c2.69,0,5.37-0.16,8.03-0.47c10.81-1.38,21.23-4.89,30.65-10.34
		c12.37-6.95,24.58-17.13,37.91-31.67c13.34,14.54,25.55,24.72,37.92,31.67c9.42,5.45,19.84,8.96,30.65,10.34
		c2.66,0.31,5.34,0.47,8.03,0.47c8.54,0.02,17-1.62,24.92-4.82c10.48-4.27,19.66-11.2,26.64-20.1c6.97-8.9,11.5-19.47,13.12-30.65
		C-458.92-1775.07-460.17-1786.34-464.08-1796.81z M-601.73-1780.95c-16.51-20.93-27.1-40.37-30.82-56.66
		c-1.52-6.11-1.88-12.44-1.06-18.68c0.65-4.58,2.33-8.94,4.91-12.77c3.18-4.13,7.27-7.47,11.95-9.76c4.67-2.3,9.81-3.49,15.03-3.49
		c5.21,0,10.35,1.19,15.03,3.49c4.68,2.3,8.76,5.64,11.94,9.76c2.58,3.83,4.26,8.2,4.91,12.77c0.82,6.24,0.46,12.58-1.06,18.69
		C-574.62-1821.31-585.22-1801.88-601.73-1780.95z M-479.74-1766.76c-1.13,7.82-4.29,15.21-9.17,21.43
		c-4.88,6.23-11.3,11.07-18.63,14.06c-7.41,2.97-15.45,4.02-23.38,3.05c-8.23-1.06-16.18-3.77-23.34-7.97
		c-11-6.18-22.14-15.67-34.68-29.6c19.96-24.6,32.42-47.28,37.03-67.48c2.08-8.5,2.53-17.31,1.33-25.97
		c-1.09-7.46-3.86-14.58-8.1-20.82c-4.97-6.73-11.46-12.2-18.93-15.97c-7.48-3.77-15.74-5.73-24.11-5.73
		c-8.38,0-16.64,1.96-24.11,5.73c-7.48,3.77-13.96,9.24-18.94,15.97c-4.24,6.24-7.01,13.35-8.1,20.81
		c-1.2,8.66-0.75,17.46,1.32,25.96c4.61,20.21,17.08,42.89,37.04,67.51c-12.54,13.92-23.68,23.41-34.68,29.59
		c-7.17,4.2-15.11,6.91-23.34,7.97c-7.93,0.97-15.97-0.08-23.39-3.05c-7.32-2.99-13.74-7.83-18.62-14.06
		c-4.88-6.22-8.04-13.61-9.17-21.43c-1.1-7.95-0.17-16.04,2.7-23.54c1.09-3.06,2.36-6.06,3.94-9.63c2.23-5.05,4.6-10.18,6.9-15.15
		l0.31-0.66c20.99-45.46,43.52-91.53,66.96-136.96l0.94-1.81c2.38-4.63,4.85-9.42,7.34-14.05c2.38-4.77,5.27-9.27,8.6-13.43
		c2.96-3.57,6.67-6.44,10.87-8.42c4.2-1.97,8.78-3,13.42-3c4.64,0,9.23,1.03,13.42,3c4.2,1.97,7.91,4.85,10.87,8.42
		c3.34,4.15,6.22,8.66,8.6,13.42c2.47,4.59,4.92,9.34,7.28,13.92l1.01,1.95c23.44,45.42,45.97,91.5,66.96,136.96l0.19,0.41
		c2.34,5.05,4.75,10.26,7.02,15.4c1.58,3.57,2.86,6.58,3.94,9.63C-479.57-1782.8-478.64-1774.71-479.74-1766.76z"/>
	<path class="st1" d="M-109.51-1617.72c16.29,3.72,35.72,14.32,56.65,30.83c-20.93,16.51-40.37,27.1-56.66,30.82
		c-6.11,1.52-12.44,1.88-18.68,1.06c-4.58-0.65-8.94-2.33-12.77-4.91c-4.13-3.18-7.47-7.27-9.76-11.95
		c-2.3-4.67-3.49-9.81-3.49-15.03c0-5.21,1.19-10.35,3.49-15.03c2.3-4.68,5.64-8.76,9.76-11.94c3.83-2.58,8.2-4.26,12.77-4.91
		C-121.96-1619.6-115.62-1619.24-109.51-1617.72z"/>
	<g class="st1">
		<path class="st2" d="M-109.51-1617.72c16.29,3.72,35.72,14.32,56.65,30.83c-20.93,16.51-40.37,27.1-56.66,30.82
			c-6.11,1.52-12.44,1.88-18.68,1.06c-4.58-0.65-8.94-2.33-12.77-4.91c-4.13-3.18-7.47-7.27-9.76-11.95
			c-2.3-4.67-3.49-9.81-3.49-15.03c0-5.21,1.19-10.35,3.49-15.03c2.3-4.68,5.64-8.76,9.76-11.94c3.83-2.58,8.2-4.26,12.77-4.91
			C-121.96-1619.6-115.62-1619.24-109.51-1617.72z"/>
		<path class="st2" d="M-106.93-1635.37c25.61,5.85,56.16,22.52,89.07,48.47c-32.91,25.96-63.47,42.61-89.09,48.46
			c-9.61,2.39-19.56,2.96-29.37,1.67c-7.2-1.02-14.06-3.66-20.08-7.72c-6.49-5-11.75-11.43-15.35-18.79
			c-3.62-7.34-5.49-15.42-5.49-23.63c0-8.19,1.87-16.27,5.49-23.63c3.62-7.36,8.87-13.77,15.35-18.77
			c6.02-4.06,12.89-6.7,20.08-7.72C-126.51-1638.32-116.54-1637.76-106.93-1635.37z"/>
	</g>
	<path class="st3" d="M-681.73-1356.85v-453.85c0-16.78,17.09-28.15,32.57-21.66l289.74,121.5c16.62,6.97,19.52,29.28,5.25,40.27
		l-218.48,168.23c-15.74,12.12-38.47,0.45-37.8-19.4l2.05-60.71c0.73-21.53,27.64-30.81,41.48-14.29l183.85,219.44
		c17.68,21.11-9.12,50.17-31.58,34.25c-77.89-55.2-156.88-110.09-156.88-105.68c0,5-36.34,59.56-67.28,105.11
		C-651.81-1324.51-681.73-1333.72-681.73-1356.85z"/>
	
		<text transform="matrix(1 0 0 1 -328.1656 -1344.0565)" style="display:inline;fill:none;stroke:#A50000; font-family:'MyriadPro-Regular'; font-size:752.7108px;">R</text>
	<circle class="st3" cx="-114.9" cy="-1708.43" r="156.07"/>
	<circle class="st3" cx="-114.9" cy="-1464.98" r="156.07"/>
	<line class="st1" x1="-270.96" y1="-1344.06" x2="-270.96" y2="-1844.61"/>
	<g class="st1">
		<path d="M2.35-620.18c2.84,0,4.48,0,6.12,0c79.66-0.01,159.32-0.04,238.98-0.02c72.82,0.02,132.94,49.64,146.85,121.13
			c13.87,71.29-29.84,145.16-98.98,167.01c-1.76,0.55-4.78,0.12-5.99-1.08c-29.47-29.21-58.78-58.59-88.11-87.95
			c-0.34-0.34-0.55-0.79-1.14-1.65c1.51-0.18,2.71-0.45,3.91-0.45c14.33,0.04,28.66-0.06,42.99,0.24
			c28.94,0.59,52.15-22.3,51.3-50.83c-0.86-28.69-25.75-50.51-54.61-47.88c-2.15,0.2-4.32,0.3-6.48,0.3
			c-43.83,0.01-87.66,0.06-131.49-0.16c-2.76-0.01-6.21-1.45-8.17-3.4c-30.67-30.37-61.15-60.94-91.67-91.47
			C4.94-617.3,4.09-618.29,2.35-620.18z"/>
		<path d="M0.45-423.18c9.76,0,18.24,0,26.73,0c35.99-0.01,71.98-0.07,107.97,0.1c2.51,0.01,5.7,1,7.41,2.7
			c64.93,64.68,129.72,129.49,194.52,194.29c0.7,0.7,1.34,1.48,2.53,2.8c-1.9,0.16-3.26,0.37-4.63,0.37
			c-43.49,0.02-86.97,0.06-130.46-0.11c-2.32-0.01-5.23-1.19-6.87-2.83C133.21-290.08,68.89-354.42,4.56-418.75
			C3.42-419.89,2.36-421.11,0.45-423.18z"/>
	</g>
	<path class="st1" d="M697.3-1127.48c-66.62-115.46-131.88-228.57-198.66-344.31c133.28,0,263.71,0,397.32,0
		c-43.43,75.25-86,149.01-130.16,225.52c-12.88-21.89-24.81-41.51-35.84-61.64c-1.45-2.64,0.95-8.28,2.91-11.77
		c15.86-28.23,32.05-56.29,49.66-87.07c-35.57,0-68.33-0.02-101.09,0.01c-31.31,0.03-62.73,1.58-93.84-0.85
		c-7.75-0.61-14.49-14.03-24.61-24.61c90.78,0,176.07,0,264.27,0c-21.87,37.9-42.2,73.39-62.84,108.7
		c-4.65,7.95-8.32,15.11,2.99,22.96c27.48-47.79,54.81-95.32,83.23-144.74c-102.94,0-203.13,0-306.7,0
		c51.24,88.98,101.58,176.37,152.1,264.11c12.63-8.9,5.68-16.98,1.47-24.29c-33.55-58.27-67.35-116.39-101.03-174.57
		c-1.95-3.38-3.53-6.97-6.31-12.52c56.34,0,111.04,0,168.3,0c-14.32,24.91-27.95,47.2-39.85,70.38c-2.89,5.62-2.43,15.34,0.51,21.14
		c10.27,20.32,21.71,40.12,33.86,59.39c9.23,14.63-5.56,21.14-8.63,36.4c-16.54-28.48-29.26-54.52-45.89-77.77
		c-14.68-20.53-16.48-37.68-0.02-57.18c5.67-6.72,8.73-15.65,13.83-25.15c-25.47,0-49.82,0-76.45,0
		c19.95,34.78,39.11,68.29,58.38,101.75c11.96,20.76,24.5,41.2,35.76,62.32c2.35,4.41,2.2,12.2-0.14,16.7
		C720.09-1165.91,709.08-1147.9,697.3-1127.48z"/>
	<polygon class="st4" points="699.58,-1201.99 735.05,-1141.94 663.18,-1097.18 457.44,-1483.2 995.68,-1492.91 820.12,-1234.03 
		761.59,-1306.21 835.5,-1441.13 556.39,-1437.9 	"/>
	<polyline class="st5" points="746.09,-1143.99 871.81,-1358.77 866.75,-1052.71 1012.91,-1317.25 	"/>
	<line class="st6" x1="573.38" y1="-1461.36" x2="986.78" y2="-1461.36"/>
	<line class="st6" x1="844.39" y1="-1069.81" x2="850.87" y2="-1461.36"/>
</g>
<g id="Layer_2">
	<g>
		<path d="M2.23,13.28c2.65,0,4.18,0,5.71,0c74.34-0.01,148.69-0.04,223.03-0.02c67.96,0.02,124.07,46.33,137.05,113.05
			c12.95,66.53-27.85,135.48-92.38,155.87c-1.64,0.52-4.46,0.11-5.59-1.01c-27.51-27.26-54.86-54.68-82.23-82.08
			c-0.31-0.31-0.52-0.74-1.07-1.54c1.41-0.17,2.53-0.42,3.65-0.42c13.37,0.04,26.75-0.05,40.12,0.22
			c27.01,0.55,48.67-20.81,47.87-47.43c-0.8-26.78-24.04-47.14-50.96-44.69c-2.01,0.18-4.03,0.28-6.05,0.28
			c-40.91,0.01-81.81,0.05-122.71-0.15c-2.58-0.01-5.79-1.36-7.63-3.17C62.42,73.84,33.98,45.32,5.5,16.82
			C4.64,15.97,3.85,15.04,2.23,13.28z"/>
		<path d="M0.45,197.13c9.1,0,17.02,0,24.94,0c33.59-0.01,67.18-0.06,100.76,0.09c2.34,0.01,5.32,0.93,6.92,2.52
			c60.6,60.36,121.06,120.85,181.55,181.33c0.66,0.66,1.25,1.38,2.36,2.61c-1.77,0.15-3.05,0.35-4.32,0.35
			c-40.58,0.01-81.17,0.05-121.75-0.1c-2.17-0.01-4.88-1.11-6.41-2.64C124.35,321.36,64.32,261.31,4.28,201.27
			C3.22,200.21,2.23,199.07,0.45,197.13z"/>
	</g>
	<text transform="matrix(1 0 0 1 419.5316 302.0258)" class="st0 st7 st8">rarepnt</text>
	<g class="st0">
		<path class="st1" d="M508.53,279.98V171.55h27.05v19.07c5.32-12.86,16.7-19.96,34.15-21.29l8.43-0.67l1.77,23.5l-15.96,1.55
			c-18.18,1.77-27.27,11.09-27.27,27.94v58.32H508.53z"/>
		<path class="st1" d="M630.04,282.19c-7.84,0-14.82-1.52-20.95-4.55c-6.14-3.03-10.94-7.13-14.41-12.31
			c-3.47-5.17-5.21-11.01-5.21-17.52c0-7.98,2.07-14.3,6.21-18.96c4.14-4.66,10.87-8.02,20.18-10.09c9.31-2.07,21.8-3.1,37.47-3.1
			h7.76v-4.66c0-7.39-1.63-12.71-4.88-15.96c-3.25-3.25-8.72-4.88-16.41-4.88c-6.06,0-12.27,0.92-18.62,2.77
			c-6.36,1.85-12.79,4.69-19.29,8.54l-7.98-18.85c3.84-2.66,8.39-4.99,13.64-6.98c5.25-2,10.79-3.55,16.63-4.66
			c5.84-1.11,11.34-1.66,16.52-1.66c15.82,0,27.57,3.66,35.26,10.98c7.68,7.32,11.53,18.66,11.53,34.04v65.63h-25.94v-17.29
			c-2.52,6.06-6.51,10.83-11.97,14.3C644.08,280.46,637.58,282.19,630.04,282.19z M635.8,263.13c7.24,0,13.27-2.51,18.07-7.54
			c4.8-5.02,7.21-11.38,7.21-19.07v-4.88h-7.54c-13.9,0-23.54,1.07-28.94,3.21c-5.4,2.14-8.09,6.03-8.09,11.64
			c0,4.88,1.7,8.87,5.1,11.97C625.01,261.57,629.74,263.13,635.8,263.13z"/>
		<path class="st1" d="M715.63,279.98V171.55h27.05v19.07c5.32-12.86,16.7-19.96,34.15-21.29l8.43-0.67l1.77,23.5l-15.96,1.55
			c-18.18,1.77-27.27,11.09-27.27,27.94v58.32H715.63z"/>
		<path class="st1" d="M854.21,282.19c-12.27,0-22.84-2.29-31.71-6.87c-8.87-4.58-15.71-11.09-20.51-19.51
			c-4.8-8.43-7.21-18.4-7.21-29.93c0-11.23,2.33-21.06,6.98-29.49c4.66-8.43,11.09-15.04,19.29-19.85c8.2-4.8,17.55-7.21,28.05-7.21
			c15.37,0,27.53,4.88,36.48,14.63c8.94,9.76,13.42,23.06,13.42,39.91v8.2H821.4c2.07,19.37,13.16,29.05,33.26,29.05
			c6.06,0,12.12-0.92,18.18-2.77c6.06-1.85,11.6-4.77,16.63-8.76l7.76,18.63c-5.18,4.29-11.68,7.69-19.51,10.2
			C869.88,280.94,862.05,282.19,854.21,282.19z M850.22,188.18c-8.13,0-14.71,2.51-19.73,7.54c-5.03,5.03-8.06,11.83-9.09,20.4
			h54.55c-0.59-9.02-3.07-15.93-7.43-20.73C864.15,190.58,858.06,188.18,850.22,188.18z"/>
		<path class="st1" d="M920.96,319.89V171.55h27.05v17.3c3.1-5.91,7.79-10.64,14.08-14.19c6.28-3.55,13.42-5.32,21.4-5.32
			c9.46,0,17.77,2.29,24.95,6.87c7.17,4.58,12.75,11.05,16.74,19.4c3.99,8.35,5.99,18.37,5.99,30.04c0,11.53-2,21.55-5.99,30.04
			c-3.99,8.5-9.53,15.04-16.63,19.62c-7.1,4.58-15.45,6.87-25.06,6.87c-7.69,0-14.6-1.66-20.73-4.99
			c-6.14-3.33-10.83-7.8-14.08-13.42v56.1H920.96z M975.72,261.13c8.28,0,14.93-2.99,19.96-8.98c5.02-5.99,7.54-14.82,7.54-26.5
			c0-11.82-2.52-20.66-7.54-26.5c-5.03-5.84-11.68-8.76-19.96-8.76c-8.28,0-14.93,2.92-19.96,8.76c-5.03,5.84-7.54,14.67-7.54,26.5
			c0,11.68,2.51,20.51,7.54,26.5C960.79,258.14,967.44,261.13,975.72,261.13z"/>
		<path class="st1" d="M1053.99,279.98V171.55h27.05v16.85c3.69-6.21,8.68-10.94,14.97-14.19c6.28-3.25,13.34-4.88,21.18-4.88
			c25.57,0,38.36,14.86,38.36,44.57v66.08h-27.72v-64.75c0-8.43-1.59-14.56-4.77-18.4c-3.18-3.84-8.09-5.77-14.75-5.77
			c-8.13,0-14.6,2.55-19.4,7.65c-4.81,5.1-7.21,11.86-7.21,20.29v60.98H1053.99z"/>
		<path class="st1" d="M1233.38,282.19c-28.68,0-43.02-14.19-43.02-42.57v-47.23h-20.84v-20.84h20.84v-32.37h27.72v32.37h32.82
			v20.84h-32.82v45.68c0,7.1,1.55,12.42,4.66,15.96c3.1,3.55,8.13,5.32,15.08,5.32c2.07,0,4.21-0.26,6.43-0.78
			c2.22-0.52,4.51-1.07,6.87-1.66l4.21,20.4c-2.66,1.48-6.03,2.66-10.09,3.55C1241.17,281.75,1237.22,282.19,1233.38,282.19z"/>
	</g>
	<g class="st9">
		<path class="st1" d="M364.86,281.96c-1.78-5-3.86-9.84-5.84-14.32c-3.05-6.9-6.24-13.81-9.33-20.48l-0.24-0.53
			c-27.55-59.66-57.12-120.13-87.89-179.74l-1.31-2.53c-3.14-6.09-6.38-12.38-9.71-18.57c-3.95-7.83-8.74-15.2-14.29-21.99
			c-6.25-7.45-14.05-13.44-22.87-17.56C204.55,2.13,194.93,0,185.2,0c-9.73,0-19.35,2.13-28.17,6.25
			c-8.82,4.11-16.62,10.11-22.87,17.56c-5.54,6.79-10.33,14.16-14.28,21.99c-3.36,6.24-6.63,12.59-9.8,18.74l-1.21,2.35
			C78.1,126.5,48.53,186.97,20.98,246.63l-0.4,0.87c-3.04,6.57-6.17,13.36-9.17,20.14c-1.98,4.48-4.06,9.31-5.84,14.33
			c-5.11,13.66-6.74,28.37-4.74,42.81c2.12,14.59,8.02,28.39,17.12,40c9.1,11.62,21.09,20.66,34.77,26.23
			c10.33,4.18,21.38,6.32,32.53,6.29c3.5,0,7-0.2,10.48-0.61c14.1-1.8,27.7-6.39,40-13.5c16.14-9.06,32.07-22.35,49.48-41.33
			c17.41,18.98,33.34,32.27,49.48,41.33c12.3,7.11,25.9,11.7,40,13.5c3.48,0.4,6.98,0.61,10.48,0.61
			c11.15,0.02,22.19-2.11,32.53-6.29c13.68-5.57,25.66-14.61,34.77-26.23c9.1-11.62,15.01-25.41,17.13-40
			C371.59,310.34,369.96,295.62,364.86,281.96z M185.21,302.66c-21.55-27.32-35.38-52.68-40.23-73.95
			c-1.99-7.97-2.46-16.24-1.38-24.38c0.85-5.97,3.04-11.67,6.41-16.67c4.15-5.38,9.48-9.74,15.59-12.74c6.1-3,12.82-4.56,19.62-4.56
			c6.8,0,13.51,1.56,19.62,4.56c6.1,3,11.43,7.36,15.58,12.74c3.37,5,5.56,10.7,6.41,16.67c1.07,8.15,0.6,16.42-1.39,24.39
			C220.58,249.99,206.76,275.35,185.21,302.66z M344.42,321.18c-1.48,10.2-5.61,19.85-11.97,27.97
			c-6.36,8.12-14.74,14.45-24.31,18.34c-9.67,3.87-20.17,5.25-30.51,3.99c-10.75-1.39-21.12-4.92-30.47-10.41
			c-14.36-8.07-28.9-20.46-45.26-38.63c26.04-32.11,42.31-61.72,48.33-88.08c2.71-11.09,3.3-22.59,1.73-33.89
			c-1.42-9.74-5.04-19.03-10.57-27.17c-6.49-8.78-14.95-15.92-24.71-20.84c-9.76-4.92-20.54-7.48-31.47-7.48
			c-10.93,0-21.71,2.56-31.47,7.48s-18.22,12.06-24.71,20.84c-5.54,8.14-9.15,17.43-10.57,27.16c-1.57,11.3-0.98,22.79,1.72,33.88
			c6.02,26.38,22.28,55.98,48.34,88.11c-16.36,18.17-30.9,30.56-45.26,38.63c-9.35,5.48-19.71,9.02-30.47,10.4
			c-10.35,1.26-20.84-0.12-30.51-3.99c-9.57-3.9-17.94-10.22-24.31-18.34c-6.36-8.12-10.49-17.77-11.97-27.97
			c-1.43-10.37-0.21-20.94,3.53-30.72c1.42-4,3.08-7.92,5.15-12.57c2.92-6.59,6.01-13.29,9-19.77l0.4-0.87
			c27.4-59.32,56.8-119.46,87.4-178.75l1.22-2.36c3.12-6.04,6.34-12.29,9.59-18.33c3.11-6.22,6.87-12.1,11.23-17.53
			c3.86-4.66,8.7-8.41,14.18-10.99c5.48-2.58,11.46-3.91,17.52-3.91c6.06,0,12.04,1.33,17.52,3.91c5.48,2.58,10.32,6.33,14.18,10.99
			c4.36,5.43,8.12,11.3,11.23,17.52c3.22,5.98,6.41,12.18,9.5,18.17l1.31,2.54c30.6,59.28,60,119.42,87.4,178.75l0.25,0.53
			c3.04,6.59,6.19,13.39,9.16,20.1c2.06,4.66,3.73,8.59,5.15,12.57C344.63,300.24,345.85,310.81,344.42,321.18z"/>
		<path class="st1" d="M517.55,299.46c-9.92,0-19.05-1.99-27.38-5.97c-8.33-3.98-15.48-9.55-21.83-16.7
			c-6.35-7.16-11.11-15.51-14.68-24.66c-3.57-9.55-5.16-19.89-5.16-31.02c0-11.14,1.99-21.87,5.56-31.42
			c3.57-9.54,8.73-17.9,15.08-25.45c6.35-7.16,13.89-13.12,22.62-17.1c8.73-3.98,17.86-5.97,28.18-5.97
			c9.92,0,18.65,1.99,26.59,6.36c7.94,3.98,14.29,9.94,19.45,17.5l1.19-19.49h36.51v149.93h-36.51l-1.19-21.87
			c-5.16,7.95-11.91,14.32-20.64,19.09C537.39,297.08,527.87,299.46,517.55,299.46z M527.07,263.67c7.14,0,13.49-1.99,19.45-5.57
			c5.56-3.98,9.92-9.15,13.49-15.51c3.17-6.36,4.76-13.92,4.76-22.27c0-8.35-1.59-15.91-4.76-22.27
			c-3.17-6.36-7.94-11.53-13.49-15.51c-5.56-3.98-12.3-5.57-19.45-5.57c-7.14,0-13.49,1.99-19.45,5.57
			c-5.55,3.98-9.92,9.15-13.49,15.51c-3.17,6.36-4.76,13.92-4.76,22.27c0,8.35,1.59,15.91,4.76,22.27
			c3.17,6.36,7.94,11.53,13.49,15.51C513.58,261.68,519.93,263.67,527.07,263.67z M665.97,104.99c0,4.37-0.79,8.35-2.78,11.53
			c-1.98,3.18-4.76,5.97-8.33,7.95c-3.57,1.99-7.54,2.78-11.51,2.78c-3.97,0-7.94-0.8-11.51-2.78c-3.57-1.99-6.35-4.77-8.33-7.95
			c-1.99-3.58-2.78-7.16-2.78-11.53c0-4.37,0.79-8.35,2.78-11.53c1.98-3.58,4.76-5.97,8.33-7.95c3.57-1.99,7.54-2.78,11.51-2.78
			c3.97,0,7.94,0.8,11.51,2.78s6.35,4.77,8.33,7.95C664.78,96.64,665.97,100.21,665.97,104.99z M623.51,295.09V145.15h39.68v149.93
			H623.51L623.51,295.09z M769.16,184.53v0.4c-1.98-0.79-4.37-1.19-6.35-1.59c-2.38-0.4-4.37-0.4-6.75-0.4
			c-11.11,0-19.45,3.18-25,9.94c-5.95,6.76-8.73,16.31-8.73,28.63v73.57h-39.68V145.15h36.51l1.19,22.67
			c3.97-7.95,8.73-13.92,15.48-18.29c6.35-4.38,13.89-6.36,22.62-6.36c2.78,0,5.56,0.4,7.94,0.79c1.19,0.4,1.98,0.4,2.78,0.8V184.53
			z M785.03,295.09V83.51h39.69v80.73c5.56-7.16,11.91-12.73,19.84-17.1c7.94-3.98,16.67-6.36,26.59-6.36
			c9.92,0,19.05,1.99,27.38,5.97c8.33,3.98,15.48,9.54,21.83,16.7c6.35,7.16,11.11,15.51,14.68,24.66
			c3.57,9.55,5.16,19.89,5.16,31.02c0,11.14-1.98,21.87-5.55,31.42c-3.57,9.55-8.73,17.9-15.08,25.45
			c-6.35,7.16-13.89,13.12-22.62,17.1c-8.73,3.98-17.86,5.96-28.18,5.96c-9.92,0-18.65-1.99-26.59-6.36
			c-7.94-3.98-14.29-9.94-19.45-17.5l-1.19,19.49L785.03,295.09z M861.62,263.67c7.14,0,13.49-1.99,19.45-5.57
			c5.56-3.98,9.92-9.15,13.49-15.51c3.17-6.36,4.76-13.92,4.76-22.27c0-8.35-1.59-15.91-4.76-22.27
			c-3.57-6.36-7.94-11.53-13.49-15.51c-5.55-3.98-12.3-5.57-19.45-5.57c-7.14,0-13.49,1.99-19.45,5.57
			c-5.56,3.98-9.92,9.15-13.49,15.51c-3.17,6.36-4.76,13.92-4.76,22.27c0,8.35,1.59,15.91,4.76,22.27
			c3.17,6.36,7.94,11.53,13.49,15.51C848.13,261.68,854.48,263.67,861.62,263.67z M955.28,295.09V145.15h36.51l1.19,19.49
			c4.37-7.16,10.32-12.73,17.86-17.1c7.54-4.37,16.27-6.36,26.19-6.36c11.11,0,20.64,2.78,28.57,7.95
			c8.33,5.17,14.68,12.73,19.05,22.27c4.37,9.54,6.75,21.08,6.75,34.2v89.88h-39.68v-84.71c0-10.34-2.38-18.69-7.14-24.66
			c-4.76-5.96-11.11-9.15-19.45-9.15c-5.95,0-11.11,1.19-15.87,3.98c-4.37,2.78-7.94,6.36-10.71,11.53
			c-2.78,4.77-3.97,10.74-3.97,16.7v85.9H955.28L955.28,295.09z M1111.25,295.09V83.51h39.69v80.73
			c5.56-7.16,11.91-12.73,19.84-17.1c7.94-3.98,16.67-6.36,26.59-6.36s19.05,1.99,27.38,5.97c8.33,3.98,15.48,9.54,21.82,16.7
			c6.36,7.16,11.11,15.51,14.69,24.66c3.58,9.55,5.15,19.89,5.15,31.02c0,11.14-1.97,21.87-5.55,31.42
			c-3.58,9.55-8.73,17.9-15.09,25.45c-6.35,7.16-13.89,13.12-22.62,17.1c-8.73,3.98-17.86,5.96-28.18,5.96
			c-9.92,0-18.65-1.99-26.59-6.36c-7.94-3.98-14.29-9.94-19.45-17.5l-1.19,19.49L1111.25,295.09z M1188.24,263.67
			c7.14,0,13.49-1.99,19.45-5.57c5.56-3.98,9.92-9.15,13.49-15.51c3.17-6.36,4.76-13.92,4.76-22.27c0-8.35-1.59-15.91-4.76-22.27
			s-7.94-11.53-13.49-15.51c-5.56-3.98-12.3-5.57-19.45-5.57c-7.14,0-13.49,1.99-19.45,5.57c-5.56,3.98-9.92,9.15-13.49,15.51
			s-4.76,13.92-4.76,22.27c0,8.35,1.59,15.91,4.76,22.27c3.17,6.36,7.94,11.53,13.49,15.51
			C1174.74,261.68,1180.7,263.67,1188.24,263.67z"/>
	</g>
	<g>
		<path d="M545.16,141.64l-4.78,39.54c-3.19-1.06-8.29-1.59-15.31-1.59c-8.5,0-16.26,2.39-23.28,7.17
			c-7.01,4.78-12.12,9.99-15.3,15.62v99.64h-42.41V143.71h40.81v15.94c4.78-5.95,11.24-10.65,19.37-14.11
			c8.13-3.45,16.98-5.18,26.54-5.18C534.21,140.37,539,140.79,545.16,141.64z"/>
		<path d="M724.68,143.71v158.31h-40.81v-12.75c-12.44,10.63-27.16,15.94-44.16,15.94c-11.59,0-22.64-2.39-33.16-7.17
			c-10.52-4.78-19.35-11.26-26.46-19.45c-13.5-15.62-20.25-34.17-20.25-55.64c0-23.28,7.55-42.86,22.64-58.75
			c15.09-15.89,33.43-23.83,55-23.83c17.64,0,33.11,5.37,46.39,16.1v-12.75H724.68z M682.27,246.55v-47.35
			c-4.46-6.06-10.12-10.84-16.98-14.35c-6.86-3.51-14.27-5.26-22.24-5.26c-12.01,0-21.82,4.28-29.41,12.83
			c-7.6,8.56-11.4,18.73-11.4,30.53c0,12.44,3.96,22.75,11.88,30.93c7.92,8.19,17.88,12.28,29.89,12.28
			c7.86,0,15.17-1.78,21.92-5.34C672.67,257.25,678.12,252.5,682.27,246.55z"/>
		<path d="M874.7,141.64l-4.78,39.54c-3.19-1.06-8.29-1.59-15.31-1.59c-8.5,0-16.26,2.39-23.28,7.17
			c-7.01,4.78-12.12,9.99-15.3,15.62v99.64h-42.41V143.71h40.81v15.94c4.78-5.95,11.24-10.65,19.37-14.11
			c8.13-3.45,16.98-5.18,26.54-5.18C863.75,140.37,868.53,140.79,874.7,141.64z"/>
		<path d="M1013.08,252.76l24.07,24.07c-7.55,9.04-17.11,16.02-28.7,20.96c-11.59,4.94-23.65,7.41-36.19,7.41
			c-24.02,0-43.84-7.6-59.47-22.8c-15.62-15.2-23.44-35.02-23.44-59.47c0-10.95,1.83-21.42,5.5-31.41
			c3.67-9.99,8.77-18.79,15.3-26.39c6.54-7.6,14.67-13.63,24.39-18.09c9.72-4.46,20.33-6.7,31.81-6.7c14.24,0,27.1,3.69,38.58,11.08
			c11.48,7.39,20.38,17.25,26.71,29.57c6.32,12.33,9.49,25.78,9.49,40.33c0,4.46-0.32,8.5-0.96,12.12H930.5
			c1.06,11.05,5.63,20.06,13.71,27.02c8.08,6.96,17.75,10.44,29.02,10.44c8.18,0,15.76-1.81,22.72-5.42
			C1002.9,261.9,1008.62,257.65,1013.08,252.76z M932.41,202.38h65.37c-0.64-7.33-3.93-13.79-9.88-19.37
			c-5.95-5.58-13.13-8.37-21.52-8.37c-8.61,0-16.18,2.76-22.72,8.29C937.11,188.46,933.37,194.94,932.41,202.38z"/>
		<path d="M1077.01,380.46V143.71h40.81v12.75c13.29-10.73,28.7-16.1,46.23-16.1c14.13,0,27.16,3.62,39.06,10.84
			c11.9,7.23,21.34,17.17,28.3,29.81c6.96,12.65,10.44,26.62,10.44,41.93c0,21.79-6.64,40.33-19.93,55.64
			c-7.12,8.19-16.02,14.67-26.7,19.45c-10.68,4.78-21.82,7.17-33.4,7.17c-15.73,0-29.87-4.78-42.41-14.35v89.6H1077.01z
			 M1119.42,199.19v47.35c4.14,6.06,9.57,10.84,16.26,14.35c6.7,3.51,13.97,5.26,21.84,5.26c12.01,0,22-4.09,29.97-12.28
			c7.97-8.18,11.96-18.49,11.96-30.93c0-11.8-3.8-21.97-11.4-30.53c-7.6-8.55-17.41-12.83-29.42-12.83
			c-7.97,0-15.38,1.75-22.24,5.26C1129.54,188.35,1123.88,193.14,1119.42,199.19z"/>
		<path d="M1320.14,302.03h-42.41V143.71h40.81v12.75c13.39-10.73,28.27-16.1,44.64-16.1c10.73,0,20.91,2.26,30.53,6.78
			c9.62,4.52,17.72,10.76,24.31,18.73c5.52,6.48,9.65,14.08,12.36,22.8c2.71,8.72,4.07,19.61,4.07,32.68v80.67h-42.57v-83.86
			c0-13.6-3.14-23.54-9.41-29.81c-5.85-5.84-13.77-8.77-23.75-8.77c-8.19,0-15.76,2.05-22.72,6.14
			c-6.96,4.09-12.25,8.58-15.86,13.47V302.03z"/>
		<path d="M1586.06,266.15l6.54,35.87c-6.17,2.12-14.99,3.19-26.46,3.19c-25.08,0-43.36-7.6-54.84-22.8
			c-7.87-10.52-11.8-26.31-11.8-47.35v-55.48h-44v-35.87h44V99.55h42.57v44.16h52.13v35.87h-52.13v60.42c0,9.25,1.7,15.89,5.1,19.93
			c4.57,5.21,11.8,7.81,21.68,7.81C1575.54,267.75,1581.28,267.22,1586.06,266.15z"/>
	</g>
</g>
</svg>
